<?xml version="1.0" encoding="UTF-8" standalone="no"?>
<!DOCTYPE svg PUBLIC "-//W3C//DTD SVG 1.1//EN" "http://www.w3.org/Graphics/SVG/1.1/DTD/svg11.dtd">
<svg width="100%" height="100%" viewBox="0 0 737 955" version="1.1" xmlns="http://www.w3.org/2000/svg" xmlns:xlink="http://www.w3.org/1999/xlink" xml:space="preserve" xmlns:serif="http://www.serif.com/" style="fill-rule:evenodd;clip-rule:evenodd;stroke-linecap:round;stroke-linejoin:round;stroke-miterlimit:1.5;">
    <g transform="matrix(1,0,0,1,-665.865,-540.114)">
        <g id="shadow" transform="matrix(1.01509,0,0,1.03796,-20.7607,-47.2968)">
            <path d="M710.04,1273.43C710.04,1273.43 676.421,1280.18 676.421,1317.96C676.421,1345.6 685.541,1366.16 727.23,1384.4C781.205,1408.02 870.742,1416.13 925.255,1433.91C985.183,1453.45 1018.41,1463.63 1106.3,1477.71C1234.07,1498.19 1315.71,1473.86 1368.12,1438.21C1415.52,1405.96 1413.32,1352.99 1358.41,1312.03C1265.5,1242.71 1198.59,1246.08 1198.59,1246.08L710.04,1273.43Z" style="fill-opacity:0.15;"/>
        </g>
        <g id="bag" transform="matrix(1,0,0,1,125.976,234.045)">
            <path d="M645.498,315.228C638.212,321.742 645.812,416.289 642.999,431.207C637.201,461.95 619.318,504.566 607.993,535.876C596.668,567.187 576.766,622.606 566.648,674.068C556.122,727.601 562.384,782.923 561.718,818.231C561.052,853.539 553.724,959.196 557.588,1000.1C562.818,1055.47 572.182,1087.9 579.305,1101.76C587.603,1109.79 602.59,1122.7 629.935,1134.4C655.528,1145.35 701.249,1149.09 734.558,1156.42C816.812,1174.51 894.864,1208.37 922.844,1212.36C950.823,1216.36 967.691,1218.34 993.006,1218.34C1018.32,1218.34 1054.5,1211.72 1091.94,1197.4C1137.59,1179.94 1171.51,1180.01 1177.51,1174.02C1183.5,1168.02 1190.83,1144.72 1191.5,1122.07C1192.16,1099.42 1188.6,1006.36 1187.27,972.386C1185.93,938.411 1188,830.619 1187.53,789.318C1187,742.152 1178.96,657.736 1153.66,579.861C1138.5,533.187 1112.92,497.529 1112.92,497.529C1112.92,497.529 1118.12,421.168 1113.46,407.844C1108.8,394.52 986.675,372.611 963.358,367.282C940.042,361.952 781.329,331.671 759.875,327.238C730.904,321.25 652.287,309.159 645.498,315.228Z" style="fill:rgb(234,143,94);"/>
            <path d="M1112.81,499.745C1112.81,499.745 1073.27,561.682 1047.54,646.512C1020.5,735.697 1004.81,841.515 1003.25,973.515C1002.06,1073.86 998.034,1213.23 998.034,1213.23C998.034,1213.23 1025.39,1188.48 1039.72,1178.05C1054.05,1167.63 1081.48,1154.35 1081.48,1154.35C1081.48,1154.35 1084.81,946.239 1084.81,902.215C1084.81,858.191 1086.14,755.468 1092.15,692.767C1098.15,630.066 1112.81,499.745 1112.81,499.745Z" style="fill:rgb(173,87,41);"/>
            <path d="M646.375,413.147C760.239,431.059 919.264,468.513 1005.49,488.93C1073.9,505.128 1110.62,499.126 1110.62,499.126L1116.24,455.621C1116.24,455.621 1017.98,446.461 948.033,427.308C909.598,416.784 776.491,384.839 734.854,379.01C693.218,373.181 643.254,367.352 643.254,367.352L646.375,413.147Z" style="fill:rgb(255,72,35);"/>
            <path d="M1020.61,765.493C1020.61,765.493 1041.46,657.1 1051.46,631.253C1061.47,605.405 1108.16,500.348 1108.16,500.348C1108.16,500.348 925.562,470.331 863.028,452.822C800.493,435.312 645.408,410.298 645.408,410.298C645.408,410.298 638.738,444.484 627.899,477.835C617.059,511.187 602.124,553.95 589.617,592.304C577.11,630.659 570.94,663.51 570.94,663.51C570.94,663.51 770.477,707.962 816.335,717.133C862.194,726.305 1020.61,765.493 1020.61,765.493Z" style="fill:rgb(251,200,4);"/>
            <path d="M645.498,315.228C638.212,321.742 645.812,416.289 642.999,431.207C637.201,461.95 619.318,504.566 607.993,535.876C596.668,567.187 576.766,622.606 566.648,674.068C556.122,727.601 562.384,782.923 561.718,818.231C561.052,853.539 553.724,959.196 557.588,1000.1C562.818,1055.47 572.182,1087.9 579.305,1101.76C587.603,1109.79 602.59,1122.7 629.935,1134.4C655.528,1145.35 701.249,1149.09 734.558,1156.42C816.812,1174.51 894.864,1208.37 922.844,1212.36C950.823,1216.36 967.691,1218.34 993.006,1218.34C1018.32,1218.34 1054.5,1211.72 1091.94,1197.4C1137.59,1179.94 1171.51,1180.01 1177.51,1174.02C1183.5,1168.02 1190.83,1144.72 1191.5,1122.07C1192.16,1099.42 1188.6,1006.36 1187.27,972.386C1185.93,938.411 1188,830.619 1187.53,789.318C1187,742.152 1178.96,657.736 1153.66,579.861C1138.5,533.187 1112.92,497.529 1112.92,497.529C1112.92,497.529 1118.12,421.168 1113.46,407.844C1108.8,394.52 986.675,372.611 963.358,367.282C940.042,361.952 781.329,331.671 759.875,327.238C730.904,321.25 652.287,309.159 645.498,315.228Z" style="fill:none;stroke:black;stroke-width:15px;"/>
            <path d="M999.712,1215.81C999.712,1215.81 1000.58,1130.89 1001.52,1091.73C1003.18,1021.78 1001.3,973.473 1002.35,933.507C1004.85,838.576 1014.75,772.767 1039.82,675.361C1068.57,563.671 1108.94,497.156 1108.94,497.156" style="fill:none;stroke:black;stroke-width:15px;"/>
            <path d="M1000.42,1214.29C1000.42,1214.29 1018.64,1195.32 1037.14,1180.1C1053.59,1166.57 1078.82,1155.88 1078.82,1155.88C1078.82,1155.88 1081.62,1044.62 1083.7,967.597C1085.78,890.57 1082.8,748.64 1093.85,662.089C1102.31,595.76 1112.84,499.186 1112.84,499.186" style="fill:none;stroke:black;stroke-width:15px;"/>
            <path d="M1178.42,1170.58C1178.42,1170.58 1161.87,1166.56 1133.48,1158.84C1110.81,1152.68 1085.2,1153.55 1085.2,1153.55" style="fill:none;stroke:black;stroke-width:15px;"/>
            <path d="M646.375,410.648C646.375,410.648 785.857,432.508 853.517,450.203C921.176,467.899 1016.24,493.137 1047.13,496.337C1085.31,500.292 1110.62,499.126 1110.62,499.126" style="fill:none;stroke:black;stroke-width:15px;"/>
        </g>
        <g id="cat" transform="matrix(1.11277,0,0,1.11277,66.9168,147.615)">
            <g transform="matrix(1.02,0.121648,-0.137752,1.15503,92.0561,-221.048)">
                <ellipse cx="771.58" cy="820.911" rx="140.279" ry="105.718" style="fill:rgb(255,72,35);stroke:black;stroke-width:9.83px;"/>
            </g>
            <g transform="matrix(0.996575,0.0826916,-0.0826916,0.996575,69.7852,-60.2698)">
                <path d="M694.348,787.754C701.065,769.7 710.563,753.871 721.828,739.455L733.486,786.088C733.486,786.088 746.299,779.686 760.284,781.392C774.268,783.097 796.78,790.26 796.78,790.26C805.518,772.911 815.216,759.402 825.773,749.33L837.028,794.012C837.028,794.012 854.083,822.663 849.307,844.152C844.532,865.64 833.228,875.272 802.92,882.307C773.342,889.172 721.4,883.33 699.229,871.051C677.059,858.772 669.214,844.493 669.896,824.369C670.578,804.245 694.348,787.754 694.348,787.754Z" style="fill:white;stroke:black;stroke-width:10.78px;"/>
            </g>
            <g transform="matrix(1.02698,0.139588,-0.144849,1.06569,100.452,-161.658)">
                <path d="M744.403,848.702C747.484,849.709 749.559,851.174 750.542,853.136L756.682,848.702L744.403,848.702Z" style="fill:none;stroke:black;stroke-width:10.21px;"/>
            </g>
            <g transform="matrix(0.996575,0.0826916,-0.0826916,0.996575,69.7852,-60.2698)">
                <path d="M655.276,831.594C655.276,831.594 663.358,831.32 674.705,832.975C685.766,834.588 693.617,838.338 693.617,838.338" style="fill:none;stroke:black;stroke-width:10.78px;"/>
            </g>
            <g transform="matrix(0.906628,-0.260549,0.276204,0.961099,-166.243,222.269)">
                <path d="M655.276,831.594C655.276,831.594 663.622,831.607 674.97,833.262C686.03,834.876 693.617,838.338 693.617,838.338" style="fill:none;stroke:black;stroke-width:11.09px;"/>
            </g>
            <g transform="matrix(0.935109,0.12422,-0.131683,0.991292,328.997,-52.6742)">
                <path d="M655.951,830.892C655.951,830.892 663.03,831.635 674.378,833.29C685.438,834.903 691.979,836.512 691.979,836.512" style="fill:none;stroke:black;stroke-width:11.09px;"/>
            </g>
            <g transform="matrix(0.783634,0.525145,-0.556696,0.830716,771.505,-167.287)">
                <path d="M655.951,830.892C655.951,830.892 663.214,831.027 674.562,832.682C685.622,834.295 691.979,836.512 691.979,836.512" style="fill:none;stroke:black;stroke-width:11.09px;"/>
            </g>
            <g transform="matrix(1.57667,0.130826,-0.130826,1.57667,-308.133,-576.13)">
                <circle cx="718.106" cy="829.06" r="5.713"/>
            </g>
            <g transform="matrix(1.57667,0.130826,-0.130826,1.57667,-232.725,-560.974)">
                <circle cx="718.106" cy="829.06" r="5.713"/>
            </g>
        </g>
        <g id="paw" transform="matrix(1.12277,-0.313607,0.313607,1.12277,-360.799,384.571)">
            <g transform="matrix(1,0,0,1,19.2105,66.1695)">
                <path d="M899.379,993.641C899.379,993.641 903.648,976.031 913.787,977.632C923.926,979.233 930.863,993.107 930.863,993.107L899.379,993.641Z" style="stroke:black;stroke-width:10.29px;"/>
            </g>
            <g transform="matrix(2.2,0,0,2.05,-1124.08,-1087.43)">
                <ellipse cx="935.399" cy="1027.26" rx="4.002" ry="5.336"/>
            </g>
            <g transform="matrix(1.53935,1.57175,-1.46459,1.43439,1021.84,-1909.52)">
                <ellipse cx="935.399" cy="1027.26" rx="4.002" ry="5.336"/>
            </g>
            <g transform="matrix(1.95053,-0.954314,0.978865,2.00071,-1920.83,-130.262)">
                <ellipse cx="935.399" cy="1027.26" rx="4.002" ry="5.336"/>
            </g>
        </g>
        <g id="paw1" serif:id="paw" transform="matrix(1.03585,0.566556,-0.566556,1.03585,700.332,-406.041)">
            <g transform="matrix(1,0,0,1,19.2105,66.1695)">
                <path d="M899.379,993.641C899.379,993.641 903.648,976.031 913.787,977.632C923.926,979.233 930.863,993.107 930.863,993.107L899.379,993.641Z" style="stroke:black;stroke-width:10.16px;"/>
            </g>
            <g transform="matrix(2.2,0,0,2.05,-1124.08,-1087.43)">
                <ellipse cx="935.399" cy="1027.26" rx="4.002" ry="5.336"/>
            </g>
            <g transform="matrix(1.53935,1.57175,-1.46459,1.43439,1021.84,-1909.52)">
                <ellipse cx="935.399" cy="1027.26" rx="4.002" ry="5.336"/>
            </g>
            <g transform="matrix(1.95053,-0.954314,0.978865,2.00071,-1920.83,-130.262)">
                <ellipse cx="935.399" cy="1027.26" rx="4.002" ry="5.336"/>
            </g>
        </g>
        <g id="paw2" serif:id="paw" transform="matrix(-1.1795,-0.0525058,-0.0525058,1.1795,2232.51,149.022)">
            <g transform="matrix(1,0,0,1,19.2105,66.1695)">
                <path d="M899.379,993.641C899.379,993.641 903.648,976.031 913.787,977.632C923.926,979.233 930.863,993.107 930.863,993.107L899.379,993.641Z" style="stroke:black;stroke-width:10.16px;"/>
            </g>
            <g transform="matrix(2.2,0,0,2.05,-1124.08,-1087.43)">
                <ellipse cx="935.399" cy="1027.26" rx="4.002" ry="5.336"/>
            </g>
            <g transform="matrix(1.53935,1.57175,-1.46459,1.43439,1021.84,-1909.52)">
                <ellipse cx="935.399" cy="1027.26" rx="4.002" ry="5.336"/>
            </g>
            <g transform="matrix(1.95053,-0.954314,0.978865,2.00071,-1920.83,-130.262)">
                <ellipse cx="935.399" cy="1027.26" rx="4.002" ry="5.336"/>
            </g>
        </g>
        <g transform="matrix(4.1936,0.85144,-1.1486,4.23698,-1645.07,-2179.64)">
            <path d="M737.693,566.594C737.732,566.594 737.765,566.587 737.791,566.574C738.039,566.548 738.163,566.405 738.163,566.144C738.163,566.079 738.156,566.02 738.143,565.968L737.732,562.721C737.38,559.343 737.165,556.69 737.087,554.76C737.035,552.947 737.008,551.265 737.008,549.713C737.008,546.192 737.152,543.538 737.439,541.752L737.634,540.539C737.687,540.513 737.732,540.5 737.771,540.5C740.953,539.913 744.389,539.62 748.08,539.62C749.384,539.62 750.583,539.665 751.679,539.757L751.953,539.757C752.187,539.692 752.305,539.535 752.305,539.287C752.292,539.079 752.187,538.942 751.992,538.877L751.659,538.818L748.373,538.407C747.16,538.277 745.817,538.211 744.344,538.211C741.892,538.224 739.525,538.401 737.243,538.74C732.51,539.444 728.643,540.663 725.644,542.397C724.94,542.763 724.177,543.291 723.355,543.982C722.782,544.516 722.429,545.051 722.299,545.586L722.299,545.684C722.299,545.918 722.423,546.101 722.671,546.231C722.749,546.27 722.827,546.29 722.905,546.29C723.049,546.29 723.238,546.173 723.473,545.938L723.492,545.899C724.183,545.129 725.435,544.334 727.248,543.512C729.608,542.469 732.444,541.595 735.757,540.891L735.991,540.852C735.991,540.891 735.985,540.924 735.972,540.95C735.737,541.693 735.561,542.43 735.444,543.16C735.118,545.195 734.955,547.301 734.955,549.478C734.955,551.669 735.17,554.46 735.6,557.85C735.861,560.119 736.311,562.512 736.95,565.029L737.282,566.32C737.374,566.502 737.511,566.594 737.693,566.594Z" style="fill-rule:nonzero;stroke:black;stroke-width:0.72px;stroke-linecap:butt;stroke-miterlimit:2;"/>
            <path d="M742.994,562.036C743.164,561.997 743.248,561.88 743.248,561.684C743.222,561.332 743.177,560.191 743.111,558.261L743.092,557.361L743.131,557.361L743.131,556.207L743.229,554.016L743.248,553.038C743.248,552.569 743.027,552.334 742.583,552.334C742.335,552.334 742.14,552.464 741.996,552.725C741.67,553.547 741.507,554.662 741.507,556.07C741.507,558.078 741.846,559.904 742.525,561.547C742.564,561.638 742.609,561.743 742.661,561.86C742.714,561.977 742.805,562.036 742.935,562.036L742.994,562.036ZM743.15,550.554C743.268,550.515 743.359,550.378 743.424,550.143C743.424,550.013 743.444,549.883 743.483,549.752C743.535,549.335 743.633,548.931 743.776,548.539C743.816,548.409 743.842,548.279 743.855,548.148L743.874,547.992C743.874,547.822 743.802,547.679 743.659,547.561C743.568,547.496 743.476,547.464 743.385,547.464C743.203,547.464 742.994,547.6 742.759,547.874C742.459,548.252 742.309,548.689 742.309,549.185L742.309,549.302C742.309,549.746 742.479,550.137 742.818,550.476C742.896,550.528 742.981,550.554 743.072,550.554L743.15,550.554Z" style="fill-rule:nonzero;stroke:black;stroke-width:0.72px;stroke-linecap:butt;stroke-miterlimit:2;"/>
            <path d="M753.146,566.378C753.315,566.378 753.426,566.287 753.478,566.105C753.531,565.739 753.596,565.381 753.674,565.029C753.896,563.451 754.124,561.684 754.359,559.728L754.711,556.931C754.854,555.796 754.998,554.655 755.141,553.508L755.278,552.373C755.578,549.765 755.793,548.266 755.923,547.874C756.51,545.996 756.869,544.386 756.999,543.043L756.999,542.926C756.999,542.326 756.791,542.026 756.373,542.026C755.76,542.026 755.278,542.736 754.926,544.158C754.417,546.127 754.033,548.116 753.772,550.124C753.707,550.75 753.544,551.343 753.283,551.904C752.983,552.464 752.696,553.051 752.422,553.664C752.344,553.821 752.266,553.951 752.187,554.055L752.05,553.782C751.737,553.234 751.561,552.934 751.522,552.882C751.157,552.412 750.714,552.178 750.192,552.178C749.775,552.178 749.384,552.288 749.019,552.51C748.471,552.823 747.995,553.214 747.591,553.684C746.221,555.249 745.256,557.035 744.696,559.043C744.526,559.565 744.441,560.1 744.441,560.647C744.441,561.417 744.663,562.036 745.107,562.505C745.419,562.779 745.765,562.916 746.143,562.916C746.704,562.916 747.232,562.74 747.728,562.388C749.11,561.436 750.388,559.91 751.561,557.811C752.044,556.937 752.52,556.057 752.989,555.17L753.009,555.131C753.035,555.04 753.094,554.994 753.185,554.994L752.95,558.613C752.807,561.69 752.735,563.477 752.735,563.973C752.735,565.12 752.774,565.837 752.852,566.124C752.892,566.281 752.989,566.365 753.146,566.378ZM746.358,561.156C746.319,560.96 746.3,560.771 746.3,560.589C746.3,560.367 746.326,560.158 746.378,559.963C746.769,558.033 747.643,556.24 748.999,554.584C749.247,554.271 749.534,553.997 749.86,553.762C750.042,553.619 750.205,553.547 750.349,553.547C750.492,553.547 750.662,553.664 750.857,553.899C751.157,554.303 751.359,554.747 751.464,555.229L751.464,555.307C751.464,555.412 751.425,555.516 751.346,555.62L751.327,555.679C749.957,558.078 748.621,559.747 747.317,560.686C746.9,560.973 746.619,561.117 746.476,561.117L746.358,561.156Z" style="fill-rule:nonzero;stroke:black;stroke-width:0.72px;stroke-linecap:butt;stroke-miterlimit:2;"/>
            <path d="M757.938,570.78C759.646,570.78 761.166,570.31 762.496,569.371C764.413,568.002 765.73,565.883 766.447,563.014C767.047,560.536 767.347,558.033 767.347,555.503C767.347,555.073 767.34,554.649 767.327,554.231C767.301,553.162 767.073,552.217 766.643,551.395C766.447,551.095 766.173,550.945 765.821,550.945C765.456,550.945 765.13,551.2 764.843,551.708C764.595,552.165 764.113,553.253 763.396,554.975C762.404,557.283 761.316,559.122 760.129,560.491C759.842,560.843 759.516,561.084 759.151,561.215L758.994,561.234C758.799,561.234 758.629,561.058 758.486,560.706C758.277,560.106 758.173,559.369 758.173,558.496C758.173,557.335 758.362,556.331 758.74,555.483C758.779,555.392 758.812,555.311 758.838,555.239C758.864,555.167 758.877,555.105 758.877,555.053C758.877,554.949 758.838,554.848 758.76,554.75C758.681,554.652 758.564,554.603 758.408,554.603C757.99,554.603 757.599,554.896 757.234,555.483C756.66,556.474 756.373,557.648 756.373,559.004C756.373,560.725 756.83,561.925 757.743,562.603C758.069,562.825 758.427,562.936 758.818,562.936C759.744,562.936 760.605,562.362 761.4,561.215C762.535,559.558 763.728,557.107 764.98,553.86L765.136,553.488C765.358,552.953 765.528,552.595 765.645,552.412L765.704,552.373L765.801,552.393L765.919,553.39L765.938,554.31C765.938,556.566 765.638,558.978 765.039,561.547C764.36,564.638 763.024,566.861 761.029,568.217C759.894,568.947 758.708,569.313 757.469,569.313C756.83,569.313 756.178,569.215 755.513,569.019C754.039,568.576 752.833,567.741 751.894,566.515C751.581,566.189 751.425,565.87 751.425,565.557C751.425,565.453 751.353,565.374 751.209,565.322L751.131,565.322C751.04,565.322 750.968,565.355 750.916,565.42C750.799,565.524 750.74,565.642 750.74,565.772C750.74,565.889 750.838,566.124 751.033,566.476L751.053,566.496C751.444,567.317 751.972,568.041 752.637,568.667C754.163,570.075 755.93,570.78 757.938,570.78Z" style="fill-rule:nonzero;stroke:black;stroke-width:0.72px;stroke-linecap:butt;stroke-miterlimit:2;"/>
            <path d="M768.638,556.266C768.69,556.266 768.84,556.207 769.088,556.09C770.939,555.046 772.987,554.499 775.23,554.447C775.503,554.486 775.927,554.505 776.501,554.505C776.684,554.492 776.775,554.388 776.775,554.192C776.775,554.023 776.677,553.912 776.481,553.86L776.168,553.801C775.373,553.671 774.701,553.606 774.154,553.606C773.384,553.606 772.628,553.703 771.885,553.899C770.959,554.108 770.092,554.447 769.283,554.916C769.062,555.046 768.859,555.19 768.677,555.346C768.442,555.529 768.325,555.731 768.325,555.953C768.338,556.161 768.442,556.266 768.638,556.266Z" style="fill-rule:nonzero;stroke:black;stroke-width:0.72px;stroke-linecap:butt;stroke-miterlimit:2;"/>
            <path d="M781.704,567.004C782.904,567.004 784.117,566.789 785.342,566.359C786.386,565.994 787.37,565.485 788.296,564.833C789.47,563.999 790.415,563.047 791.132,561.977C792.006,560.699 792.462,559.311 792.501,557.811C792.501,556.676 792.097,555.685 791.289,554.838C790.897,554.421 790.408,553.984 789.822,553.527L788.668,552.686C788.459,552.53 788.355,552.393 788.355,552.275C788.355,552.184 788.394,552.054 788.472,551.884C788.615,551.545 788.772,551.239 788.941,550.965L789.646,549.85C789.659,549.85 789.665,549.843 789.665,549.83C791.608,546.857 792.795,544.334 793.225,542.26C793.277,541.947 793.303,541.635 793.303,541.322C793.303,540.657 793.173,540.024 792.912,539.424C792.312,538.185 791.328,537.566 789.959,537.566C789.45,537.566 788.896,537.696 788.296,537.957C786.588,538.648 784.951,540.141 783.386,542.437C782.408,543.858 781.535,545.54 780.765,547.483C780.935,546.401 781.065,545.638 781.156,545.195C781.339,544.243 781.43,543.636 781.43,543.375C781.43,543.102 781.365,542.903 781.235,542.779C781.104,542.655 780.961,542.593 780.804,542.593C780.504,542.593 780.25,542.776 780.041,543.141C779.911,543.362 779.794,543.597 779.689,543.845C778.92,545.697 778.385,548.259 778.085,551.532C777.942,552.927 777.87,554.16 777.87,555.229C777.87,556.22 777.935,557.465 778.066,558.965C778.301,561.208 778.653,562.962 779.122,564.227C779.213,564.54 779.396,564.696 779.67,564.696C780.074,564.696 780.289,564.546 780.315,564.246L780.296,563.796C780.204,563.184 780.113,562.473 780.022,561.664C779.904,560.569 779.846,559.48 779.846,558.398C779.846,554.016 780.791,549.883 782.682,545.996C784.143,542.971 785.825,540.833 787.729,539.581C788.537,539.046 789.28,538.779 789.959,538.779C790.78,538.779 791.321,539.137 791.582,539.855C791.699,540.181 791.758,540.52 791.758,540.872C791.745,541.602 791.543,542.391 791.152,543.238C790.213,545.155 789.144,546.968 787.944,548.676C787.474,549.341 787.077,549.974 786.751,550.574C786.425,551.095 786.249,551.708 786.223,552.412C786.223,553.116 786.562,553.723 787.24,554.231L787.826,554.642C787.826,554.655 787.833,554.662 787.846,554.662C788.863,555.418 789.541,555.989 789.88,556.373C790.219,556.758 790.389,557.211 790.389,557.733C790.389,559.089 789.861,560.367 788.804,561.567C787.918,562.571 786.783,563.418 785.401,564.109C783.797,564.931 782.167,565.342 780.511,565.342C779.298,565.342 778.118,565.14 776.97,564.735L776.794,564.696C776.612,564.696 776.475,564.761 776.384,564.892C776.331,564.97 776.305,565.055 776.305,565.146C776.305,565.329 776.423,565.498 776.657,565.655C776.775,565.707 776.886,565.766 776.99,565.831C778.398,566.613 779.97,567.004 781.704,567.004Z" style="fill-rule:nonzero;stroke:black;stroke-width:0.72px;stroke-linecap:butt;stroke-miterlimit:2;"/>
            <path d="M802.164,563.171C802.334,563.131 802.422,563.008 802.428,562.799C802.435,562.59 802.451,562.388 802.477,562.193L802.477,562.114C802.595,561.319 802.699,560.517 802.79,559.708L802.947,558.476C803.051,557.381 803.168,556.455 803.299,555.698C803.547,553.782 803.703,552.478 803.768,551.786C803.768,551.721 803.775,551.662 803.788,551.61C803.814,551.493 803.827,551.376 803.827,551.258C803.814,550.841 803.605,550.574 803.201,550.456C803.136,550.443 803.077,550.437 803.025,550.437C802.569,550.437 802.275,550.789 802.145,551.493C802.053,552.067 801.897,552.627 801.675,553.175C800.828,555.34 799.726,557.368 798.37,559.258C797.874,560.002 797.359,560.549 796.824,560.902C796.759,560.941 796.694,560.96 796.629,560.96C796.485,560.96 796.322,560.758 796.14,560.354C795.879,559.832 795.748,559.278 795.748,558.691C795.748,557.818 795.846,556.748 796.042,555.483C796.068,555.431 796.081,555.307 796.081,555.112C796.081,554.903 795.97,554.799 795.748,554.799C795.449,554.799 795.188,555.112 794.966,555.738C794.51,557.016 794.281,558.176 794.281,559.219C794.281,559.924 794.418,560.602 794.692,561.254C794.875,561.697 795.155,562.056 795.533,562.329C795.82,562.551 796.146,562.662 796.511,562.662C797.45,562.662 798.343,562.056 799.191,560.843C799.96,559.761 800.658,558.626 801.284,557.439L801.46,557.165L801.538,557.185C801.551,557.224 801.558,557.315 801.558,557.459L801.519,558.848C801.519,560.478 801.604,561.801 801.773,562.818C801.825,563.053 801.943,563.171 802.125,563.171L802.164,563.171Z" style="fill-rule:nonzero;stroke:black;stroke-width:0.72px;stroke-linecap:butt;stroke-miterlimit:2;"/>
            <path d="M810.927,564.383C811.149,564.383 811.263,564.201 811.27,563.836C811.276,563.47 811.286,563.105 811.299,562.74L811.279,562.114C811.123,559.128 811.045,556.142 811.045,553.156C811.045,552.138 811.077,550.195 811.142,547.327C811.142,547.118 811.175,546.955 811.24,546.838C811.514,546.838 811.788,546.851 812.062,546.877C813.94,546.942 816.124,547.183 818.615,547.6C818.771,547.627 818.931,547.662 819.094,547.708C819.257,547.754 819.371,547.776 819.436,547.776C819.645,547.776 819.749,547.666 819.749,547.444C819.749,547.274 819.593,547.144 819.28,547.053L818.341,546.74C816.241,546.062 814.005,545.644 811.631,545.488L811.24,545.41C811.24,545.123 811.319,543.988 811.475,542.006L811.495,541.83C811.495,541.504 811.384,541.341 811.162,541.341C810.927,541.341 810.764,541.582 810.673,542.065C810.373,543.538 810.197,544.438 810.145,544.764L810.008,545.41L808.502,545.41C808.371,545.423 808.235,545.429 808.091,545.429L807.68,545.41C807.68,545.358 807.674,545.312 807.661,545.273C807.752,544.36 807.876,543.447 808.032,542.534C808.032,542.234 807.915,542.084 807.68,542.084C807.459,542.084 807.283,542.221 807.152,542.495C806.97,542.886 806.689,543.89 806.311,545.507C806.207,545.534 806.122,545.547 806.057,545.547C804.244,545.729 802.458,546.068 800.697,546.564C800.384,546.642 800.071,546.74 799.758,546.857C799.367,547.001 799.152,547.222 799.113,547.522C799.113,547.718 799.217,547.822 799.426,547.835C799.608,547.835 799.791,547.822 799.973,547.796C802.451,547.379 804.335,547.124 805.626,547.033L805.685,547.014C805.842,547.014 805.946,547.04 805.998,547.092L806.018,547.17C805.939,547.848 805.861,548.422 805.783,548.891C805.483,551.03 805.333,553.149 805.333,555.249C805.333,557.752 805.535,560.236 805.939,562.701C805.992,563.131 806.102,563.542 806.272,563.933C806.35,564.207 806.468,564.344 806.624,564.344C806.833,564.344 806.957,564.243 806.996,564.041C807.035,563.839 807.067,563.575 807.093,563.249L806.996,558.183C806.996,555.718 807.113,552.536 807.348,548.637C807.374,548.324 807.39,548.028 807.397,547.747C807.403,547.467 807.439,547.196 807.504,546.935C807.817,546.883 808.221,546.851 808.717,546.838C809.265,546.838 809.636,546.857 809.832,546.896L809.832,547.072C809.597,549.015 809.48,551.147 809.48,553.469C809.48,556.09 809.61,558.346 809.871,560.236C810.067,561.684 810.308,562.988 810.595,564.149C810.634,564.305 810.745,564.383 810.927,564.383Z" style="fill-rule:nonzero;stroke:black;stroke-width:0.72px;stroke-linecap:butt;stroke-miterlimit:2;"/>
        </g>
        <g transform="matrix(6.43554,1.80099,0,5.37342,-3366.31,-5383.55)">
            <path d="M642.915,1034.88C643.508,1034.88 644.056,1034.83 644.559,1034.73C645.785,1034.53 647.023,1034.23 648.274,1033.82C649.938,1033.2 651.33,1032.53 652.453,1031.82C652.659,1031.72 652.762,1031.58 652.762,1031.4C652.762,1031.32 652.743,1031.24 652.704,1031.17C652.601,1031.01 652.446,1030.93 652.24,1030.93L651.698,1031.15C651.311,1031.33 650.621,1031.57 649.628,1031.86C647.526,1032.51 645.475,1032.83 643.476,1032.83C643.025,1032.82 642.599,1032.79 642.199,1032.73C641.516,1032.67 641.013,1032.3 640.69,1031.63C640.471,1031.18 640.297,1030.68 640.168,1030.14C639.936,1029.08 639.82,1028.1 639.82,1027.18L639.8,1026.17C639.8,1023.89 640.084,1021.17 640.651,1018.01C641.283,1014.56 641.973,1011.41 642.721,1008.57L642.741,1008.55C642.818,1008.22 642.902,1007.89 642.992,1007.56C643.031,1007.41 643.05,1007.25 643.05,1007.1C643.025,1006.8 642.876,1006.65 642.605,1006.65C642.36,1006.65 642.154,1006.8 641.986,1007.08C641.638,1007.69 641.264,1008.56 640.864,1009.69C638.93,1015.23 637.879,1020.54 637.711,1025.63L637.711,1026.25C637.711,1030.68 638.646,1033.38 640.516,1034.38C641.251,1034.71 642.051,1034.88 642.915,1034.88Z" style="fill-rule:nonzero;stroke:black;stroke-width:0.44px;stroke-linecap:butt;stroke-miterlimit:2;"/>
            <path d="M654.116,1030.41C654.284,1030.37 654.368,1030.26 654.368,1030.06C654.342,1029.71 654.297,1028.59 654.232,1026.68L654.213,1025.79L654.252,1025.79L654.252,1024.65L654.348,1022.48L654.368,1021.51C654.368,1021.05 654.148,1020.82 653.71,1020.82C653.465,1020.82 653.271,1020.95 653.13,1021.2C652.807,1022.02 652.646,1023.12 652.646,1024.51C652.646,1026.5 652.981,1028.3 653.652,1029.93C653.691,1030.02 653.736,1030.12 653.787,1030.24C653.839,1030.35 653.929,1030.41 654.058,1030.41L654.116,1030.41ZM654.271,1019.06C654.387,1019.02 654.477,1018.88 654.542,1018.65C654.542,1018.52 654.561,1018.39 654.6,1018.26C654.651,1017.85 654.748,1017.45 654.89,1017.06C654.929,1016.93 654.955,1016.81 654.967,1016.68L654.987,1016.52C654.987,1016.35 654.916,1016.21 654.774,1016.1C654.684,1016.03 654.593,1016 654.503,1016C654.323,1016 654.116,1016.13 653.884,1016.4C653.587,1016.78 653.439,1017.21 653.439,1017.7L653.439,1017.82C653.439,1018.26 653.607,1018.64 653.942,1018.98C654.02,1019.03 654.103,1019.06 654.194,1019.06L654.271,1019.06Z" style="fill-rule:nonzero;stroke:black;stroke-width:0.44px;stroke-linecap:butt;stroke-miterlimit:2;"/>
            <path d="M662.009,1032.73C662.229,1032.73 662.341,1032.55 662.348,1032.19C662.354,1031.83 662.364,1031.47 662.377,1031.11L662.358,1030.49C662.203,1027.54 662.125,1024.58 662.125,1021.63C662.125,1020.62 662.158,1018.7 662.222,1015.86C662.222,1015.66 662.254,1015.5 662.319,1015.38C662.59,1015.38 662.861,1015.39 663.131,1015.42C664.989,1015.48 667.149,1015.72 669.612,1016.13C669.767,1016.16 669.925,1016.2 670.086,1016.24C670.248,1016.29 670.36,1016.31 670.425,1016.31C670.631,1016.31 670.734,1016.2 670.734,1015.98C670.734,1015.81 670.58,1015.68 670.27,1015.59L669.342,1015.28C667.265,1014.61 665.053,1014.2 662.706,1014.05L662.319,1013.97C662.319,1013.68 662.396,1012.56 662.551,1010.6L662.57,1010.43C662.57,1010.11 662.461,1009.94 662.242,1009.94C662.009,1009.94 661.848,1010.18 661.758,1010.66C661.461,1012.12 661.287,1013.01 661.236,1013.33L661.1,1013.97L659.61,1013.97C659.482,1013.98 659.346,1013.99 659.204,1013.99L658.798,1013.97C658.798,1013.92 658.792,1013.87 658.779,1013.83C658.869,1012.93 658.991,1012.03 659.146,1011.12C659.146,1010.83 659.03,1010.68 658.798,1010.68C658.579,1010.68 658.405,1010.81 658.276,1011.09C658.095,1011.47 657.818,1012.47 657.444,1014.07C657.341,1014.09 657.257,1014.1 657.192,1014.1C655.4,1014.28 653.633,1014.62 651.891,1015.11C651.582,1015.19 651.272,1015.28 650.963,1015.4C650.576,1015.54 650.363,1015.76 650.324,1016.06C650.324,1016.25 650.428,1016.35 650.634,1016.37C650.815,1016.37 650.995,1016.35 651.176,1016.33C653.626,1015.92 655.49,1015.66 656.767,1015.57L656.825,1015.55C656.979,1015.55 657.083,1015.58 657.134,1015.63L657.154,1015.71C657.076,1016.38 656.999,1016.95 656.921,1017.41C656.625,1019.53 656.476,1021.62 656.476,1023.7C656.476,1026.17 656.676,1028.63 657.076,1031.07C657.128,1031.5 657.237,1031.9 657.405,1032.29C657.482,1032.56 657.599,1032.69 657.753,1032.69C657.96,1032.69 658.082,1032.6 658.121,1032.39C658.16,1032.19 658.192,1031.93 658.218,1031.61L658.121,1026.6C658.121,1024.16 658.237,1021.02 658.469,1017.16C658.495,1016.85 658.511,1016.56 658.517,1016.28C658.524,1016 658.559,1015.74 658.624,1015.48C658.933,1015.43 659.333,1015.39 659.823,1015.38C660.365,1015.38 660.733,1015.4 660.926,1015.44L660.926,1015.61C660.694,1017.53 660.578,1019.64 660.578,1021.94C660.578,1024.53 660.707,1026.76 660.965,1028.63C661.158,1030.06 661.397,1031.35 661.681,1032.5C661.719,1032.66 661.829,1032.73 662.009,1032.73Z" style="fill-rule:nonzero;stroke:black;stroke-width:0.44px;stroke-linecap:butt;stroke-miterlimit:2;"/>
            <path d="M668.103,1031.36C668.826,1031.36 669.535,1031.15 670.231,1030.74C670.786,1030.38 671.218,1029.9 671.528,1029.29L671.547,1029.15C671.547,1029.05 671.502,1028.97 671.412,1028.9C671.373,1028.88 671.328,1028.86 671.276,1028.86C671.16,1028.86 671.076,1028.89 671.025,1028.94L670.618,1029.35C670.025,1029.81 669.374,1030.04 668.664,1030.04C667.426,1030.04 666.601,1029.5 666.188,1028.4C666.033,1027.96 665.956,1027.54 665.956,1027.14C665.956,1026.95 665.975,1026.76 666.014,1026.56L666.362,1026.76C666.788,1026.99 667.22,1027.1 667.658,1027.1C667.994,1027.1 668.336,1027.04 668.684,1026.91C669.522,1026.58 670.167,1026.01 670.618,1025.21C671.07,1024.34 671.295,1023.45 671.295,1022.52C671.295,1022.13 671.257,1021.74 671.179,1021.34C671.063,1020.65 670.722,1020.11 670.154,1019.69C669.844,1019.5 669.522,1019.4 669.187,1019.4C668.684,1019.4 668.226,1019.55 667.813,1019.83C667.22,1020.2 666.71,1020.66 666.285,1021.2C665.098,1022.69 664.395,1024.37 664.176,1026.25C664.15,1026.49 664.137,1026.72 664.137,1026.95C664.137,1028.36 664.518,1029.45 665.279,1030.24C665.588,1030.55 665.937,1030.79 666.324,1030.95C666.917,1031.22 667.51,1031.36 668.103,1031.36ZM667.426,1025.88C667.117,1025.88 666.698,1025.76 666.169,1025.5C666.453,1024.13 667.072,1022.94 668.026,1021.94C668.555,1021.4 668.942,1021.13 669.187,1021.13C669.406,1021.13 669.561,1021.32 669.651,1021.7C669.741,1022.08 669.786,1022.44 669.786,1022.79C669.786,1024.18 669.258,1025.15 668.2,1025.69C667.942,1025.82 667.684,1025.88 667.426,1025.88Z" style="fill-rule:nonzero;stroke:black;stroke-width:0.44px;stroke-linecap:butt;stroke-miterlimit:2;"/>
            <path d="M674.275,1031.61C674.623,1031.61 674.862,1031.42 674.991,1031.05C675.042,1030.78 675.087,1030.3 675.126,1029.6C675.19,1028.21 675.384,1026.83 675.706,1025.46C676.184,1023.43 677.144,1021.67 678.589,1020.16L679.285,1019.42C679.35,1019.37 679.382,1019.3 679.382,1019.21C679.382,1018.99 679.292,1018.88 679.111,1018.88C679.034,1018.88 678.892,1018.94 678.686,1019.06C676.338,1020.59 674.849,1022.81 674.217,1025.71C674.217,1025.85 674.172,1025.92 674.081,1025.92L674.043,1025.87C673.823,1024.74 673.714,1023.61 673.714,1022.46C673.714,1022.03 673.643,1021.8 673.501,1021.76L673.346,1021.75C673.127,1021.75 672.966,1021.87 672.862,1022.13C672.63,1022.82 672.514,1023.65 672.514,1024.63C672.514,1026.74 672.753,1028.72 673.23,1030.55C673.333,1030.87 673.494,1031.14 673.714,1031.36C673.881,1031.53 674.068,1031.61 674.275,1031.61Z" style="fill-rule:nonzero;stroke:black;stroke-width:0.44px;stroke-linecap:butt;stroke-miterlimit:2;"/>
        </g>
    </g>
</svg>
